<svg xmlns="http://www.w3.org/2000/svg" viewBox="0 0 64 64" fill="none" aria-hidden="true">
  <path fill="#000" fill-rule="evenodd" d="M14.08 6.40L10.14 8.76L10.93 11.52L10.14 13.10L6.60 15.46L8.96 16.25L7.38 20.18L10.14 21.76L8.17 26.09L8.17 31.61L10.54 33.97L13.69 41.06L21.17 45.78L15.26 48.15L13.69 54.06L14.08 54.84L15.26 54.06L16.44 54.45L16.05 53.27L16.84 52.48L17.62 53.66L18.02 49.33L18.81 48.54L19.99 49.72L20.38 48.15L27.08 47.36L29.83 48.54L29.05 52.09L27.86 54.06L23.53 55.24L24.71 56.42L24.32 57.60L26.68 57.60L29.44 55.24L33.77 55.63L30.62 53.66L31.41 52.87L30.62 51.30L32.98 42.63L35.35 39.09L38.10 37.12L40.47 37.12L43.62 38.70L40.47 33.97L41.26 33.18L44.41 33.97L47.16 37.51L47.95 34.76L49.13 37.12L49.13 33.97L47.16 30.82L47.95 30.03L51.50 32.79L52.68 35.15L52.28 31.21L48.74 26.88L49.53 26.09L51.10 26.88L53.86 31.61L54.65 27.27L52.68 23.34L53.46 22.55L56.22 25.30L57.01 27.67L57.40 23.34L56.62 20.18L55.04 17.43L50.71 13.88L51.50 13.10L49.92 11.52L47.56 10.73L41.65 11.13L37.71 13.10L34.56 16.25L31.80 20.97L29.44 29.24L25.11 25.70L25.50 24.12L20.38 18.22L19.20 15.46L20.78 13.88L19.99 12.70L20.78 11.13L19.59 10.34L18.41 7.19L15.26 7.98Z"/>
</svg>
